<svg viewBox="0 0 240 240" xmlns="http://www.w3.org/2000/svg">
  <defs>
    <linearGradient id="bg" x1="0" y1="0" x2="1" y2="1">
      <stop stop-color="#6c4fe0" />
      <stop offset="1" stop-color="#2a1466" />
    </linearGradient>
    <radialGradient id="c" cx="0.34" cy="0.3" r="0.85">
      <stop stop-color="#dffaff" />
      <stop offset="0.45" stop-color="#5be0ff" />
      <stop offset="1" stop-color="#0fa3da" />
    </radialGradient>
  </defs>
  <rect width="240" height="240" rx="52" fill="url(#bg)" />
  <path d="M120 56 L196 106 L120 140 L44 106 Z" fill="#ffffff" />
  <path d="M96 124 L144 124 Q150 124 148 134 L142 162 Q140 170 130 170 L110 170 Q100 170 98 162 L92 134 Q90 124 96 124 Z" fill="#e7e1ff" />
  <g stroke="#ffffff" stroke-width="7" stroke-linecap="round">
    <path d="M108 150 C 92 176, 82 192, 78 210" />
    <path d="M120 156 C 118 182, 116 198, 114 212" />
    <path d="M132 152 C 146 174, 158 188, 168 200" />
  </g>
  <circle cx="78" cy="212" r="7" fill="#18c3f5" />
  <circle cx="114" cy="214" r="7" fill="#18c3f5" />
  <circle cx="170" cy="202" r="7" fill="#18c3f5" />
  <path d="M132 96 C 162 100, 184 116, 184 146" stroke="#18c3f5" stroke-width="7" stroke-linecap="round" fill="none" />
  <circle cx="184" cy="158" r="13" fill="url(#c)" />
  <circle cx="116" cy="98" r="24" fill="url(#c)" />
  <circle cx="108" cy="90" r="7" fill="#ffffff" opacity="0.85" />
</svg>
