<svg viewBox="0 0 240 240" xmlns="http://www.w3.org/2000/svg">
  <defs>
    <linearGradient id="bg" x1="0" y1="0" x2="1" y2="1">
      <stop stop-color="#0b1d3a" />
      <stop offset="1" stop-color="#050b18" />
    </linearGradient>
    <linearGradient id="g" x1="40" y1="40" x2="200" y2="200" gradientUnits="userSpaceOnUse">
      <stop stop-color="#5be0ff" />
      <stop offset="1" stop-color="#1f6fd0" />
    </linearGradient>
    <radialGradient id="s" cx="0.5" cy="0.5" r="0.5">
      <stop stop-color="#eafdff" />
      <stop offset="0.5" stop-color="#5be0ff" />
      <stop offset="1" stop-color="#18a8e0" />
    </radialGradient>
    <clipPath id="c"><circle cx="120" cy="120" r="70" /></clipPath>
  </defs>
  <rect width="240" height="240" rx="52" fill="url(#bg)" />
  <circle cx="120" cy="120" r="70" fill="#0a2747" fill-opacity="0.5" />
  <g clip-path="url(#c)" stroke="url(#g)" stroke-width="1.8" opacity="0.55" fill="none">
    <line x1="120" y1="50" x2="120" y2="190" />
    <ellipse cx="120" cy="120" rx="24" ry="70" />
    <ellipse cx="120" cy="120" rx="48" ry="70" />
    <line x1="50" y1="120" x2="190" y2="120" />
    <ellipse cx="120" cy="120" rx="70" ry="24" />
    <ellipse cx="120" cy="120" rx="70" ry="48" />
  </g>
  <circle cx="120" cy="120" r="70" stroke="url(#g)" stroke-width="2.6" fill="none" />
  <g stroke="#eafdff" stroke-width="0.8" stroke-linejoin="round">
    <g transform="translate(120 98) scale(1.7)">
      <path d="M0,-10 L2.94,-4.05 L9.51,-3.09 L4.76,1.55 L5.88,8.09 L0,5 L-5.88,8.09 L-4.76,1.55 L-9.51,-3.09 L-2.94,-4.05 Z" fill="url(#s)" />
    </g>
    <g transform="translate(86 150) scale(1.45)">
      <path d="M0,-10 L2.94,-4.05 L9.51,-3.09 L4.76,1.55 L5.88,8.09 L0,5 L-5.88,8.09 L-4.76,1.55 L-9.51,-3.09 L-2.94,-4.05 Z" fill="url(#s)" />
    </g>
    <g transform="translate(154 150) scale(1.45)">
      <path d="M0,-10 L2.94,-4.05 L9.51,-3.09 L4.76,1.55 L5.88,8.09 L0,5 L-5.88,8.09 L-4.76,1.55 L-9.51,-3.09 L-2.94,-4.05 Z" fill="url(#s)" />
    </g>
  </g>
</svg>
